<?xml version="1.0" encoding="UTF-8"?>
<!-- Generator: Adobe Illustrator 16.0.0, SVG Export Plug-In . SVG Version: 6.00 Build 0)  -->
<!DOCTYPE svg PUBLIC "-//W3C//DTD SVG 1.1//EN" "http://www.w3.org/Graphics/SVG/1.1/DTD/svg11.dtd">
<svg version="1.1" id="Ebene_1" xmlns="http://www.w3.org/2000/svg" xmlns:xlink="http://www.w3.org/1999/xlink" x="0px" y="0px" width="494.975px" height="446.978px" viewBox="0 0 494.975 446.978" enable-background="new 0 0 494.975 446.978" xml:space="preserve">
<g id="d3e1Qs_1_" display="none">
	
		<image display="inline" overflow="visible" width="1080" height="1797" id="d3e1Qs_2_" xlink:href="4F146A279CDD0E5.png" transform="matrix(1 0 0 1 -263.1558 -6.3179)">
	</image>
</g>
<text transform="matrix(1 0 0 1 64.397 387.8975)" display="none" font-family="'ProximaNova-Bold'" font-size="97">play-cms</text>
<g>
	<path fill="#273068" d="M82.827,381.884v23.861H70.508v-64.698h12.319v5.917c3.589-4.56,8.73-7.081,14.453-7.081   c12.028,0,20.758,8.924,20.758,24.541c0,15.616-8.73,24.638-20.758,24.638C91.751,389.062,86.707,386.733,82.827,381.884z    M105.331,364.424c0-8.052-4.85-13.58-11.931-13.58c-3.977,0-8.439,2.23-10.573,5.335v16.489c2.037,3.008,6.596,5.433,10.573,5.433   C100.481,378.101,105.331,372.571,105.331,364.424z"/>
	<path fill="#273068" d="M127.058,387.897v-64.699h12.319v64.699H127.058z"/>
	<path fill="#273068" d="M179.729,387.897v-4.947c-3.201,3.88-8.73,6.111-14.841,6.111c-7.469,0-16.199-5.044-16.199-15.521   c0-11.058,8.73-15.132,16.199-15.132c6.305,0,11.737,2.037,14.841,5.724v-5.917c0-4.753-4.074-7.857-10.282-7.857   c-4.947,0-9.603,1.94-13.483,5.529l-4.85-8.633c5.723-5.142,13.095-7.372,20.467-7.372c10.767,0,20.564,4.268,20.564,17.751v30.264   H179.729z M179.729,376.646v-5.82c-2.037-2.716-5.917-4.171-9.894-4.171c-4.85,0-8.827,2.619-8.827,7.081s3.977,6.984,8.827,6.984   C173.812,380.72,177.691,379.361,179.729,376.646z"/>
	<path fill="#273068" d="M204.463,395.173c1.067,0.484,2.716,0.775,3.88,0.775c3.201,0,5.335-0.873,6.499-3.395l1.746-4.074   l-19.012-47.433h13.192l12.223,32.592l12.318-32.592h13.192l-22.02,54.514c-3.491,8.827-9.7,11.155-17.75,11.349   c-1.358,0-4.559-0.291-6.014-0.775L204.463,395.173z"/>
	<path fill="#273068" d="M250.828,369.661v-10.476h23.28v10.476H250.828z"/>
	<path fill="#273068" d="M280.12,364.424c0-14.356,10.477-24.541,24.832-24.541c9.604,0,15.424,4.171,18.527,8.438l-8.051,7.566   c-2.231-3.298-5.626-5.044-9.895-5.044c-7.469,0-12.707,5.432-12.707,13.58c0,8.147,5.238,13.677,12.707,13.677   c4.269,0,7.663-1.94,9.895-5.142l8.051,7.566c-3.104,4.269-8.924,8.536-18.527,8.536   C290.596,389.062,280.12,378.876,280.12,364.424z"/>
	<path fill="#273068" d="M389.632,387.897v-29.585c0-4.365-1.939-7.469-6.983-7.469c-4.365,0-7.954,2.909-9.7,5.432v31.622h-12.416   v-29.585c0-4.365-1.94-7.469-6.984-7.469c-4.268,0-7.856,2.909-9.7,5.432v31.622H331.53v-46.851h12.318v6.014   c2.037-2.716,8.148-7.178,15.326-7.178c6.887,0,11.35,3.2,12.998,8.438c2.716-4.171,8.924-8.438,16.103-8.438   c8.633,0,13.773,4.559,13.773,14.161v33.854H389.632z"/>
	<path fill="#273068" d="M410.196,381.786l5.335-8.924c3.492,3.298,10.379,6.499,16.199,6.499c5.335,0,7.856-2.037,7.856-4.947   c0-7.663-27.742-1.357-27.742-19.788c0-7.856,6.79-14.743,19.206-14.743c7.857,0,14.162,2.716,18.818,6.401l-4.947,8.73   c-2.812-2.91-8.147-5.433-13.871-5.433c-4.462,0-7.372,1.94-7.372,4.56c0,6.887,27.84,1.066,27.84,19.981   c0,8.634-7.372,14.938-20.37,14.938C423,389.062,415.143,386.346,410.196,381.786z"/>
</g>
<polygon fill="#222247" points="66.563,83.897 186.231,217.231 191.229,223.397 72.397,249.022 66.563,243.564 "/>
<polygon fill="#292F69" stroke="#FFFFFF" stroke-width="0.1" stroke-miterlimit="10" points="66.563,83.897 186.23,217.231   66.563,243.564 "/>
<polygon fill="#5F7D2B" points="86.23,41.564 365.564,110.897 370.647,116.897 329.897,191.897 228.439,215.147 221.897,209.564 "/>
<polygon fill="#8FB531" stroke="#FFFFFF" stroke-width="0.1" stroke-miterlimit="10" points="86.23,41.564 365.564,110.897   323.564,185.897 221.897,209.564 "/>
<polygon fill="#607D2B" points="112.564,263.897 302.231,225.231 308.231,231.397 273.064,294.397 117.896,269.73 "/>
<polygon fill="#8FB531" stroke="#F6F6F6" stroke-width="0.1" stroke-miterlimit="10" points="112.564,263.897 302.231,225.231   267.231,288.564 "/>
<line fill="none" stroke="#FFFFFF" stroke-width="0.1" stroke-miterlimit="10" x1="323.564" y1="185.897" x2="329.897" y2="191.897"/>
<line fill="none" stroke="#FFFFFF" stroke-width="0.1" stroke-miterlimit="10" x1="267.231" y1="288.564" x2="273.064" y2="294.397"/>
</svg>